<?xml version="1.0" standalone="no"?>
<!DOCTYPE svg PUBLIC "-//W3C//DTD SVG 20010904//EN"
 "http://www.w3.org/TR/2001/REC-SVG-20010904/DTD/svg10.dtd">
<svg version="1.0" xmlns="http://www.w3.org/2000/svg"
 width="400.000000pt" height="400.000000pt" viewBox="0 0 400.000000 400.000000"
 preserveAspectRatio="xMidYMid meet">
<metadata>
Created by potrace 1.11, written by Peter Selinger 2001-2013
</metadata>
<g transform="translate(0.000000,400.000000) scale(0.100000,-0.100000)"
fill="#000000" stroke="none">
<path d="M3345 3980 c-170 -67 -230 -265 -128 -421 81 -123 270 -154 393 -64
49 36 98 112 106 165 4 25 8 52 9 60 1 8 -4 39 -11 69 -15 57 -54 117 -97 151
-71 56 -187 73 -272 40z"/>
<path d="M2197 3144 c-1 -1 -64 -5 -140 -8 -76 -4 -155 -9 -175 -11 -153 -19
-226 -29 -362 -51 -162 -26 -192 -31 -225 -38 -11 -2 -51 -7 -90 -11 -38 -4
-77 -9 -87 -10 -33 -7 -265 -18 -358 -18 -101 0 -302 10 -335 17 -11 2 -45 7
-75 10 -65 8 -108 15 -132 22 -23 7 -23 3 4 -42 l22 -37 -50 7 c-27 4 -60 10
-73 13 l-25 6 24 -39 c113 -186 238 -329 385 -439 188 -142 390 -205 655 -205
133 0 224 12 350 45 l55 14 -25 -19 c-35 -27 -161 -76 -255 -99 -98 -24 -206
-35 -348 -34 l-108 0 27 -29 c31 -32 34 -31 -69 -28 l-59 1 39 -33 c214 -189
444 -284 708 -293 184 -6 348 32 457 105 24 16 44 25 46 20 7 -21 -52 -121
-96 -162 -38 -35 -66 -50 -147 -77 -105 -35 -382 -101 -425 -101 l-25 0 28
-19 28 -18 -77 -13 -77 -13 65 -33 c161 -81 337 -122 503 -118 127 4 236 31
346 87 236 121 383 254 482 437 37 66 93 210 102 257 2 15 9 49 15 77 5 28 12
76 14 107 l3 56 -55 -30 c-96 -53 -192 -65 -289 -38 -24 6 -43 13 -43 16 0 2
25 2 55 1 69 -4 138 19 235 78 122 74 165 122 198 221 74 220 -85 444 -328
461 -61 5 -290 11 -293 8z"/>
<path d="M3048 3123 c-2 -9 12 -75 30 -146 17 -71 34 -139 36 -151 37 -178 89
-466 100 -551 2 -22 10 -80 16 -130 19 -153 26 -223 35 -355 22 -310 22 -926
0 -1100 -3 -19 -7 -71 -10 -115 -9 -148 -12 -169 -51 -490 -3 -21 -6 -44 -7
-50 -1 -7 81 -11 246 -13 l247 -2 0 23 c0 13 -4 48 -9 78 -6 30 -12 77 -16
104 -3 28 -8 68 -10 90 -15 117 -30 313 -41 525 -14 266 -7 898 11 985 2 11 7
56 10 100 3 44 7 94 9 110 2 17 7 59 11 95 3 36 8 72 10 80 2 8 7 37 10 64 3
27 7 59 10 70 2 12 7 39 10 61 5 38 19 121 30 175 3 14 10 52 16 85 6 33 30
144 55 246 24 102 44 195 44 207 0 21 0 21 -55 -4 -100 -44 -211 -67 -325 -67
-148 -1 -240 17 -355 68 -47 20 -54 21 -57 8z"/>
</g>
</svg>
